# xmcd
#
# Track frame offsets: 
#        150
#        13655
#        38885
#        54123
#        74464
#        96287
#        121437
#        137649
#        152067
#        165555
#        181937
#
# Disc length: 2721 seconds
#
# Revision: 5
# Processed by: cddbd v1.5.2PL0 Copyright (c) Steve Scherf et al.
# Submitted via: ExactAudioCopy v0.99pb4
#
DISCID=8c0a9f0b
DTITLE=Steve Cropper - With A Little Help From My Friends
DYEAR=1971
DGENRE=R&B/Soul
TTITLE0=Crop-Dustin'
TTITLE1=Land Of 1000 Dances
TTITLE2=99 1/2
TTITLE3=Boo-Ga-Loo Down Broadway
TTITLE4=Funky Broadway
TTITLE5=With A Little Help From My Friends
TTITLE6=Oh, Pretty Woman
TTITLE7=I'd Rather Drink Muddy Water
TTITLE8=The Way I Feel Tonight
TTITLE9=In The Midnight Hour
TTITLE10=Rattlesnake
EXTD=© 2002\nLabel: Stax Records (Fantasy Inc.]\nSCD24 8555-2\n24 BIT 
EXTD=Remastered
EXTT0=
EXTT1=
EXTT2=
EXTT3=
EXTT4=
EXTT5=
EXTT6=
EXTT7=
EXTT8=
EXTT9=
EXTT10=
PLAYORDER=
